#!OML:ASF I:\golf\golf\golf 2\Subject 1\2002-09-07\Subject1.ASF
:FULLY-SPECIFIED
:DEGREES
332
root -5.76183 18.0183 -1.49399 -175.416 32.8664 -177.711
lowerback -5.03649 8.23157 13.5416
upperback -3.49627 14.0558 15.4254
thorax -2.29114 8.27095 9.61837
lowerneck -4.28741 -20.5247 -2.98698
upperneck 25.8719 -24.9069 -5.61638
head 8.42495 -11.4759 -3.26795
rclavicle 7.31528e-014 1.01778e-013
rhumerus 47.8853 48.0715 -75.2648
rradius 36.2397
rwrist -1.56238
rhand 0.701561 4.01399
rfingers 7.12502
rthumb 26.2622 -24.1885
lclavicle 7.31528e-014 1.01778e-013
lhumerus 16.0227 -11.9473 89.8258
lradius 49.6022
lwrist 53.6159
lhand -22.0387 37.6413
lfingers 7.12502
lthumb -175.629 -112.424
rfemur 5.09069 -6.84284 7.47712
rtibia 29.9856
rfoot 0.533088 -29.6669
rtoes 18.1663
lfemur -17.3284 -4.32498 -18.9732
ltibia 21.0296
lfoot -6.67999 -28.9561
ltoes -1.04313
333
root -5.75278 18.0164 -1.54725 -175.028 31.8437 -177.473
lowerback -4.27968 9.09863 16.4096
upperback -4.12829 14.8378 13.2125
thorax -2.14883 8.28142 5.67157
lowerneck -5.01441 -20.5204 -1.31633
upperneck 25.4534 -25.5589 -3.81325
head 8.42573 -11.4806 -3.02017
rclavicle 7.31528e-014 -1.90833e-014
rhumerus 52.1298 46.7451 -76.0916
rradius 36.7076
rwrist 0.565838
rhand -1.03947 6.02719
rfingers 7.12502
rthumb 24.5944 -22.4129
lclavicle 7.31528e-014 -1.90833e-014
lhumerus 18.9096 -11.6251 85.6819
lradius 51.6553
lwrist 52.5782
lhand -22.8455 35.4666
lfingers 7.12502
lthumb -176.408 -114.584
rfemur 5.25427 -7.1236 7.87087
rtibia 29.7536
rfoot 0.646677 -30.3081
rtoes 19.1063
lfemur -17.7506 -4.55309 -18.8062
ltibia 21.3026
lfoot -6.68823 -29.7192
ltoes -1.55634
334
root -5.74486 18.0181 -1.60686 -174.694 30.8167 -177.41
lowerback -4.0372 9.47165 16.5081
upperback -4.59713 15.5252 12.8553
thorax -2.6798 8.58223 5.17315
lowerneck -5.31879 -16.4229 -1.78306
upperneck 24.6296 -27.4052 -1.97483
head 8.59619 -14.5408 -2.94726
rclavicle -1.7016e-013 -6.04305e-014
rhumerus 56.1961 46.9952 -74.1001
rradius 37.5812
rwrist 1.68415
rhand -2.68645 7.23898
rfingers 7.12502
rthumb 23.0149 -21.4069
lclavicle -1.7016e-013 -6.04305e-014
lhumerus 20.872 -9.69564 84.6665
lradius 53.3873
lwrist 51.0704
lhand -23.4695 33.3561
lfingers 7.12502
lthumb -177.01 -116.685
rfemur 5.40756 -7.35671 8.12417
rtibia 29.5085
rfoot 0.134018 -31.1369
rtoes 20.8941
lfemur -18.1589 -4.96897 -18.7932
ltibia 21.5204
lfoot -6.62066 -30.3369
ltoes -2.17626
335
root -5.73646 18.0243 -1.66882 -174.227 29.7824 -177.19
lowerback -3.86321 9.84179 16.7464
upperback -5.06329 16.192 12.4804
thorax -3.12736 8.87082 4.61108
lowerneck -5.56026 -16.7182 -1.92152
upperneck 23.8957 -27.5368 -1.35965
head 8.49548 -14.477 -2.74064
rclavicle 4.45278e-014 1.59028e-014
rhumerus 60.4435 47.0205 -71.8373
rradius 38.5199
rwrist 2.21581
rhand -3.97351 8.30888
rfingers 7.12502
rthumb 21.7794 -20.4857
lclavicle 4.45278e-014 1.59028e-014
lhumerus 23.055 -7.82166 83.6151
lradius 55.0725
lwrist 49.5588
lhand -23.8265 31.9205
lfingers 7.12502
lthumb -177.355 -118.116
rfemur 5.50945 -7.50847 8.58457
rtibia 29.225
rfoot -0.690804 -32.1444
rtoes 23.5354
lfemur -18.5653 -5.34633 -18.6223
ltibia 21.6819
lfoot -6.44769 -30.8837
ltoes -2.30232
336
root -5.72582 18.0269 -1.73051 -173.787 28.691 -176.944
lowerback -3.65907 10.2466 17.0914
upperback -5.59761 16.9003 11.9743
thorax -3.58624 9.15736 3.85903
lowerneck -5.7192 -17.1075 -1.72195
upperneck 23.0211 -27.7625 -0.965087
head 8.25486 -14.4708 -2.60842
rclavicle 1.59028e-015 6.04305e-014
rhumerus 64.5107 46.6511 -69.5893
rradius 39.4474
rwrist 2.39938
rhand -4.88687 9.28405
rfingers 7.12502
rthumb 20.9021 -19.6098
lclavicle 1.59028e-015 6.04305e-014
lhumerus 25.2476 -6.1686 82.6925
lradius 56.7738
lwrist 47.9302
lhand -24.1699 30.9554
lfingers 7.12502
lthumb -177.687 -119.077
rfemur 5.67541 -7.65867 9.10877
rtibia 28.8808
rfoot -1.33688 -32.9695
rtoes 26.334
lfemur -18.934 -5.76425 -18.4072
ltibia 21.8204
lfoot -6.27806 -31.4489
ltoes -1.7333
337
root -5.71263 18.03 -1.79303 -173.416 27.5286 -176.732
lowerback -3.48942 10.6034 17.3484
upperback -6.16978 17.5551 11.4646
thorax -4.07675 9.41786 3.14596
lowerneck -5.90408 -17.605 -1.15685
upperneck 22.097 -28.0289 -1.08587
head 7.8739 -14.5197 -2.64063
rclavicle 1.39944e-013 -5.08889e-014
rhumerus 68.1784 46.1596 -67.5544
rradius 40.4525
rwrist 2.31942
rhand -6.00264 10.0072
rfingers 7.12502
rthumb 19.8298 -19.0012
lclavicle 1.39944e-013 -5.08889e-014
lhumerus 27.3727 -4.45407 82.0907
lradius 58.4263
lwrist 46.1722
lhand -24.6037 30.1693
lfingers 7.12502
lthumb -178.106 -119.859
rfemur 5.94437 -7.81566 9.63996
rtibia 28.4835
rfoot -1.98166 -33.7749
rtoes 28.4571
lfemur -19.2874 -6.21778 -18.2061
ltibia 21.9668
lfoot -5.81661 -32.1464
ltoes -0.437645
338
root -5.69569 18.0379 -1.85505 -172.947 26.3346 -176.401
lowerback -3.36604 10.9322 17.7007
upperback -6.75714 18.1624 10.9196
thorax -4.51513 9.64913 2.3694
lowerneck -6.09912 -17.9803 -0.843155
upperneck 21.2718 -28.2195 -0.938282
head 7.60652 -14.5288 -2.58813
rclavicle -5.40694e-014 -2.3218e-013
rhumerus 71.4832 45.5107 -66.1575
rradius 41.2784
rwrist 2.0825
rhand -7.13871 11.1292
rfingers 7.12502
rthumb 18.7374 -17.9884
lclavicle -5.40694e-014 -2.3218e-013
lhumerus 29.6506 -2.67125 81.5139
lradius 60.042
lwrist 44.4129
lhand -24.6208 29.9016
lfingers 7.12502
lthumb -178.122 -120.127
rfemur 6.18615 -7.99197 10.3257
rtibia 28.0439
rfoot -2.9903 -34.7067
rtoes 30.4805
lfemur -19.6903 -6.6324 -17.8567
ltibia 22.0963
lfoot -5.05086 -32.9373
ltoes 1.52583
339
root -5.67598 18.0401 -1.91622 -172.586 25.0977 -176.221
lowerback -3.12207 11.1761 17.8847
upperback -7.36256 18.6864 10.3606
thorax -5.0674 9.8308 1.61279
lowerneck -6.77946 -18.1342 -0.845492
upperneck 21.0129 -28.1583 -0.783415
head 7.65292 -14.4122 -2.59735
rclavicle -5.08889e-014 -3.49861e-014
rhumerus 74.5377 44.8783 -65.359
rradius 41.7104
rwrist 1.88073
rhand -7.96841 12.7726
rfingers 7.12502
rthumb 17.9392 -16.42
lclavicle -5.08889e-014 -3.49861e-014
lhumerus 31.9233 -0.97293 80.874
lradius 61.4198
lwrist 42.4091
lhand -24.7656 29.216
lfingers 7.12502
lthumb -178.262 -120.811
rfemur 6.51021 -8.28649 10.8568
rtibia 27.5576
rfoot -4.02966 -35.6184
rtoes 32.5804
lfemur -20.0292 -7.06398 -17.6411
ltibia 22.2042
lfoot -4.30074 -33.8152
ltoes 3.11627
340
root -5.65411 18.0393 -1.97891 -172.254 23.8114 -176.065
lowerback -3.00086 11.4592 18.0335
upperback -7.90463 19.1993 9.7684
thorax -5.46489 10.0135 0.886671
lowerneck -7.93325 -18.2904 -0.798615
upperneck 20.9953 -28.0801 -0.770432
head 7.82939 -14.27 -2.72107
rclavicle 6.20208e-014 -7.63333e-014
rhumerus 77.642 44.0268 -64.4121
rradius 42.1116
rwrist 1.73555
rhand -8.80952 14.0088
rfingers 7.12502
rthumb 17.1298 -15.2561
lclavicle 6.20208e-014 -7.63333e-014
lhumerus 34.3762 0.221745 80.2085
lradius 62.2786
lwrist 39.7448
lhand -25.8859 26.8669
lfingers 7.12502
lthumb -179.344 -123.154
rfemur 6.87663 -8.57936 11.4183
rtibia 27.0178
rfoot -4.41355 -36.5975
rtoes 33.8212
lfemur -20.3425 -7.49846 -17.437
ltibia 22.2969
lfoot -3.82847 -34.766
ltoes 3.83148
341
root -5.63132 18.0417 -2.04371 -171.822 22.4722 -175.874
lowerback -3.04859 11.7861 18.2545
upperback -8.5314 19.7208 9.02323
thorax -5.7787 10.1911 0.0235575
lowerneck -8.49688 -18.5604 -0.628934
upperneck 20.5401 -28.3232 -0.337926
head 7.81306 -14.2812 -2.67053
rclavicle 7.95139e-015 -5.725e-014
rhumerus 80.8028 42.9258 -63.2413
rradius 42.6546
rwrist 1.48916
rhand -10.0041 14.5645
rfingers 7.12502
rthumb 15.9797 -14.7964
lclavicle 7.95139e-015 -5.725e-014
lhumerus 37.1604 1.8232 80.0456
lradius 63.6799
lwrist 38.9794
lhand -24.8727 27.2441
lfingers 7.12502
lthumb -178.366 -122.782
rfemur 7.17281 -8.85584 12.0906
rtibia 26.4036
rfoot -5.22872 -37.554
rtoes 35.2777
lfemur -20.7738 -7.95164 -17.1727
ltibia 22.3834
lfoot -3.66562 -35.7163
ltoes 4.23952
342
root -5.60589 18.0441 -2.11239 -171.441 21.1182 -175.807
lowerback -3.16528 11.9675 18.3049
upperback -9.15092 20.0465 8.34691
thorax -6.12775 10.2875 -0.697937
lowerneck -8.40259 -18.786 -0.781647
upperneck 19.6925 -28.5227 0.385279
head 7.64803 -14.3068 -2.40819
rclavicle 5.88403e-014 6.67916e-014
rhumerus 84.098 42.1187 -62.0502
rradius 43.1008
rwrist 1.23539
rhand -11.3524 15.3684
rfingers 7.12502
rthumb 14.681 -14.0918
lclavicle 5.88403e-014 6.67916e-014
lhumerus 39.769 3.23358 79.647
lradius 64.4105
lwrist 37.1069
lhand -25.3122 26.0886
lfingers 7.12502
lthumb -178.79 -123.935
rfemur 7.53681 -9.24324 12.6181
rtibia 25.6823
rfoot -6.82343 -38.3657
rtoes 37.2685
lfemur -21.2172 -8.44059 -17.037
ltibia 22.509
lfoot -3.13375 -36.621
ltoes 5.46697
